<?xml version="1.0" encoding="UTF-8"?>
<svg width="200" height="40" viewBox="0 0 200 40" fill="none" xmlns="http://www.w3.org/2000/svg">
  <!-- Futuristic sports-themed version of the Contested logo -->
  <defs>
    <linearGradient id="techGradient" x1="0%" y1="0%" x2="100%" y2="0%">
      <stop offset="0%" stop-color="#003366" />
      <stop offset="100%" stop-color="#00A3FF" />
    </linearGradient>
    <linearGradient id="neonGradient" x1="0%" y1="0%" x2="100%" y2="0%">
      <stop offset="0%" stop-color="#00A3FF" />
      <stop offset="100%" stop-color="#00FFCC" />
    </linearGradient>
  </defs>
  
  <!-- Text "CONTESTED" -->
  <path d="M10.88 30C8.64 30 6.77333 29.5733 5.28 28.72C3.78667 27.8667 2.69333 26.6667 2 25.12C1.30667 23.5733 0.96 21.76 0.96 19.68C0.96 17.6 1.30667 15.7867 2 14.24C2.69333 12.6933 3.78667 11.4933 5.28 10.64C6.77333 9.78667 8.64 9.36 10.88 9.36C12.72 9.36 14.3467 9.70667 15.76 10.4C17.1733 11.0933 18.2667 12.08 19.04 13.36C19.8133 14.64 20.2 16.16 20.2 17.92C20.2 18.1333 20.1867 18.3867 20.16 18.68C20.1333 18.9733 20.0933 19.28 20.04 19.6H6.28C6.38667 21.0667 6.84 22.16 7.64 22.88C8.44 23.6 9.52 23.96 10.88 23.96C11.8667 23.96 12.68 23.7733 13.32 23.4C13.96 23.0267 14.4267 22.5067 14.72 21.84H19.92C19.6 22.96 19.04 23.96 18.24 24.84C17.44 25.72 16.4267 26.4133 15.2 26.92C13.9733 27.4267 12.5333 27.68 10.88 27.68V30ZM10.88 15.52C9.6 15.52 8.57333 15.84 7.8 16.48C7.02667 17.12 6.54667 18.0667 6.36 19.32H14.96C14.9067 18.2 14.52 17.2933 13.8 16.6C13.08 15.9067 12.1067 15.56 10.88 15.56V15.52Z" fill="url(#techGradient)"/>
  <path d="M30.1301 30C28.4901 30 27.0101 29.68 25.6901 29.04C24.3701 28.4 23.3301 27.4933 22.5701 26.32C21.8101 25.1467 21.4101 23.76 21.3701 22.16H26.2501C26.3301 23.0933 26.7034 23.8667 27.3701 24.48C28.0368 25.0933 28.9301 25.4 30.0501 25.4C30.9034 25.4 31.5568 25.2 32.0101 24.8C32.4634 24.4 32.6901 23.8933 32.6901 23.28C32.6901 22.5867 32.3834 22.0667 31.7701 21.72C31.1568 21.3733 30.1168 21 28.6501 20.6C27.1301 20.2 25.8901 19.8 24.9301 19.4C23.9701 19 23.1568 18.3867 22.4901 17.56C21.8234 16.7333 21.4901 15.6267 21.4901 14.24C21.4501 13.0133 21.7701 11.92 22.4501 10.96C23.1301 10 24.0501 9.25333 25.2101 8.72C26.3701 8.18667 27.6768 7.92 29.1301 7.92C31.3301 7.92 33.1034 8.49333 34.4501 9.64C35.7968 10.7867 36.5701 12.3467 36.7701 14.32H32.0501C31.9701 13.4933 31.6234 12.8267 31.0101 12.32C30.3968 11.8133 29.5968 11.56 28.6101 11.56C27.8101 11.56 27.1834 11.7467 26.7301 12.12C26.2768 12.4933 26.0501 12.9733 26.0501 13.56C26.0501 14.2267 26.3568 14.7467 26.9701 15.12C27.5834 15.4933 28.6101 15.8667 30.0501 16.24C31.5301 16.64 32.7568 17.04 33.7301 17.44C34.7034 17.84 35.5301 18.4533 36.2101 19.28C36.8901 20.1067 37.2368 21.2267 37.2501 22.64C37.2501 23.84 36.9368 24.92 36.3101 25.88C35.6834 26.84 34.7701 27.5867 33.5701 28.12C32.3701 28.6533 31.0301 28.92 29.5501 28.92L30.1301 30Z" fill="url(#techGradient)"/>
  <path d="M45.4 30C43.76 30 42.28 29.68 40.96 29.04C39.64 28.4 38.6 27.4933 37.84 26.32C37.08 25.1467 36.68 23.76 36.64 22.16H41.52C41.6 23.0933 41.9733 23.8667 42.64 24.48C43.3067 25.0933 44.2 25.4 45.32 25.4C46.1733 25.4 46.8267 25.2 47.28 24.8C47.7333 24.4 47.96 23.8933 47.96 23.28C47.96 22.5867 47.6533 22.0667 47.04 21.72C46.4267 21.3733 45.3867 21 43.92 20.6C42.4 20.2 41.16 19.8 40.2 19.4C39.24 19 38.4267 18.3867 37.76 17.56C37.0933 16.7333 36.76 15.6267 36.76 14.24C36.72 13.0133 37.04 11.92 37.72 10.96C38.4 10 39.32 9.25333 40.48 8.72C41.64 8.18667 42.9467 7.92 44.4 7.92C46.6 7.92 48.3733 8.49333 49.72 9.64C51.0667 10.7867 51.84 12.3467 52.04 14.32H47.32C47.24 13.4933 46.8933 12.8267 46.28 12.32C45.6667 11.8133 44.8667 11.56 43.88 11.56C43.08 11.56 42.4533 11.7467 42 12.12C41.5467 12.4933 41.32 12.9733 41.32 13.56C41.32 14.2267 41.6267 14.7467 42.24 15.12C42.8533 15.4933 43.88 15.8667 45.32 16.24C46.8 16.64 48.0267 17.04 49 17.44C49.9733 17.84 50.8 18.4533 51.48 19.28C52.16 20.1067 52.5067 21.2267 52.52 22.64C52.52 23.84 52.2067 24.92 51.58 25.88C50.9533 26.84 50.04 27.5867 48.84 28.12C47.64 28.6533 46.3 28.92 44.82 28.92L45.4 30Z" fill="url(#techGradient)"/>
  <path d="M60.3102 30.12C58.4302 30.12 56.8035 29.5467 55.4302 28.4C54.0568 27.2533 53.3702 25.48 53.3702 23.08V8.48H58.1102V22.72C58.1102 23.68 58.3635 24.4267 58.8702 24.96C59.3768 25.4933 60.0702 25.76 60.9502 25.76C62.0302 25.76 62.8968 25.3333 63.5502 24.48C64.2035 23.6267 64.5302 22.4133 64.5302 20.84V8.48H69.2702V29.56H64.7702V26.24H64.6502C64.1302 27.52 63.3902 28.5067 62.4302 29.16C61.4702 29.8133 60.1435 30.12 58.3902 30.12H60.3102Z" fill="url(#techGradient)"/>
  <path d="M72.6301 30C72.0167 30 71.5101 29.7867 71.1101 29.36C70.7101 28.9333 70.5101 28.4267 70.5101 27.84C70.5101 27.2267 70.7101 26.72 71.1101 26.32C71.5101 25.92 72.0167 25.72 72.6301 25.72C73.2434 25.72 73.7501 25.92 74.1501 26.32C74.5501 26.72 74.7501 27.2267 74.7501 27.84C74.7501 28.4267 74.5501 28.9333 74.1501 29.36C73.7501 29.7867 73.2434 30 72.6301 30Z" fill="url(#neonGradient)"/>
  <path d="M86.02 30.12C84.14 30.12 82.5133 29.5467 81.14 28.4C79.7667 27.2533 79.08 25.48 79.08 23.08V8.48H83.82V22.72C83.82 23.68 84.0733 24.4267 84.58 24.96C85.0867 25.4933 85.78 25.76 86.66 25.76C87.74 25.76 88.6067 25.3333 89.26 24.48C89.9133 23.6267 90.24 22.4133 90.24 20.84V8.48H94.98V29.56H90.48V26.24H90.36C89.84 27.52 89.1 28.5067 88.14 29.16C87.18 29.8133 85.8533 30.12 84.1 30.12H86.02Z" fill="url(#techGradient)"/>
  <path d="M108.31 30.28C106.47 30.28 104.857 29.84 103.47 28.96C102.084 28.08 100.99 26.8667 100.19 25.32C99.3905 23.7733 98.9905 21.9867 98.9905 19.96C98.9905 18 99.3905 16.24 100.19 14.68C100.99 13.12 102.084 11.88 103.47 10.96C104.857 10.04 106.47 9.58 108.31 9.58C110.044 9.58 111.55 9.97333 112.83 10.76C114.11 11.5467 115.084 12.6267 115.75 14H115.87V0.64H120.61V29.56H116.11V25.6H115.75C115.084 26.9733 114.11 28.0533 112.83 28.84C111.55 29.6267 110.044 30.0267 108.31 30.0267V30.28ZM109.27 25.88C110.564 25.88 111.644 25.4 112.51 24.44C113.377 23.48 113.81 21.9867 113.81 19.96C113.81 17.9333 113.377 16.4267 112.51 15.44C111.644 14.4533 110.564 13.96 109.27 13.96C107.95 13.96 106.864 14.44 106.01 15.4C105.157 16.36 104.73 17.88 104.73 19.96C104.73 22.04 105.157 23.56 106.01 24.52C106.864 25.48 107.964 25.96 109.27 25.96V25.88Z" fill="url(#techGradient)"/>
  <path d="M134.86 30.28C132.66 30.28 130.74 29.84 129.1 28.96C127.46 28.08 126.18 26.8667 125.26 25.32C124.34 23.7733 123.88 21.96 123.88 19.88C123.88 17.8 124.34 15.9867 125.26 14.44C126.18 12.8933 127.46 11.68 129.1 10.8C130.74 9.92 132.66 9.48 134.86 9.48C137.06 9.48 138.98 9.92 140.62 10.8C142.26 11.68 143.54 12.8933 144.46 14.44C145.38 15.9867 145.84 17.8 145.84 19.88C145.84 21.96 145.38 23.7733 144.46 25.32C143.54 26.8667 142.26 28.08 140.62 28.96C138.98 29.84 137.06 30.28 134.86 30.28ZM134.86 25.8C136.22 25.8 137.32 25.3067 138.18 24.32C139.04 23.3333 139.46 21.88 139.46 19.96C139.46 18.04 139.04 16.5867 138.18 15.6C137.32 14.6133 136.22 14.12 134.86 14.12C133.5 14.12 132.4 14.6133 131.54 15.6C130.68 16.5867 130.26 18.04 130.26 19.96C130.26 21.88 130.68 23.3333 131.54 24.32C132.4 25.3067 133.5 25.8 134.86 25.8Z" fill="url(#techGradient)"/>
  <path d="M159.97 30.28C157.69 30.28 155.697 29.84 153.97 28.96C152.243 28.08 150.903 26.8667 149.93 25.32C148.957 23.7733 148.47 21.96 148.47 19.88C148.47 17.8 148.943 15.9867 149.89 14.44C150.837 12.8933 152.137 11.68 153.77 10.8C155.403 9.92 157.277 9.48 159.37 9.48C161.303 9.48 163.03 9.89333 164.55 10.72C166.07 11.5467 167.263 12.7333 168.13 14.28C168.997 15.8267 169.43 17.64 169.43 19.72V21.12H153.37C153.557 22.7467 154.17 24 155.21 24.88C156.25 25.76 157.557 26.2 159.13 26.2C160.303 26.2 161.29 25.9467 162.09 25.44C162.89 24.9333 163.45 24.2667 163.77 23.44H169.13C168.743 24.8267 168.037 26.0667 167.01 27.16C165.983 28.2533 164.717 29.12 163.21 29.76C161.703 30.4 159.97 30.72 158.01 30.72L159.97 30.28ZM159.37 13.56C157.963 13.56 156.757 13.9467 155.77 14.72C154.783 15.4933 154.157 16.6267 153.89 18.12H164.45C164.37 16.76 163.85 15.6533 162.89 14.8C161.93 13.9467 160.75 13.52 159.33 13.52L159.37 13.56Z" fill="url(#techGradient)"/>
  <path d="M174.94 30C174.327 30 173.82 29.7867 173.42 29.36C173.02 28.9333 172.82 28.4267 172.82 27.84C172.82 27.2267 173.02 26.72 173.42 26.32C173.82 25.92 174.327 25.72 174.94 25.72C175.553 25.72 176.06 25.92 176.46 26.32C176.86 26.72 177.06 27.2267 177.06 27.84C177.06 28.4267 176.86 28.9333 176.46 29.36C176.06 29.7867 175.553 30 174.94 30Z" fill="url(#neonGradient)"/>
  <path d="M181.17 30C180.557 30 180.05 29.7867 179.65 29.36C179.25 28.9333 179.05 28.4267 179.05 27.84C179.05 27.2267 179.25 26.72 179.65 26.32C180.05 25.92 180.557 25.72 181.17 25.72C181.783 25.72 182.29 25.92 182.69 26.32C183.09 26.72 183.29 27.2267 183.29 27.84C183.29 28.4267 183.09 28.9333 182.69 29.36C182.29 29.7867 181.783 30 181.17 30Z" fill="url(#neonGradient)"/>
  <path d="M197.15 30.28C194.95 30.28 193.037 29.84 191.39 28.96C189.743 28.08 188.457 26.8667 187.53 25.32C186.603 23.7733 186.14 21.96 186.14 19.88C186.14 17.8 186.603 15.9867 187.53 14.44C188.457 12.8933 189.743 11.68 191.39 10.8C193.037 9.92 194.95 9.48 197.15 9.48C199.35 9.48 201.263 9.92 202.91 10.8C204.557 11.68 205.843 12.8933 206.77 14.44C207.697 15.9867 208.16 17.8 208.16 19.88C208.16 21.96 207.697 23.7733 206.77 25.32C205.843 26.8667 204.557 28.08 202.91 28.96C201.263 29.84 199.35 30.28 197.15 30.28ZM197.15 25.8C198.51 25.8 199.617 25.3067 200.47 24.32C201.323 23.3333 201.75 21.88 201.75 19.96C201.75 18.04 201.323 16.5867 200.47 15.6C199.617 14.6133 198.51 14.12 197.15 14.12C195.79 14.12 194.683 14.6133 193.83 15.6C192.977 16.5867 192.55 18.04 192.55 19.96C192.55 21.88 192.977 23.3333 193.83 24.32C194.683 25.3067 195.79 25.8 197.15 25.8Z" fill="url(#techGradient)"/>
</svg>