<?xml version="1.0" encoding="UTF-8" standalone="no"?>
<svg width="300" height="300" viewBox="0 0 300 300" fill="none" xmlns="http://www.w3.org/2000/svg">
  <defs>
    <linearGradient id="logoGradient" x1="0%" y1="0%" x2="100%" y2="100%">
      <stop offset="0%" stop-color="#1E90FF" />
      <stop offset="100%" stop-color="#00BFFF" />
    </linearGradient>
  </defs>
  
  <!-- Outer Circle -->
  <circle cx="150" cy="150" r="140" stroke="url(#logoGradient)" stroke-width="6" fill="none" />
  
  <!-- Trophy Cup -->
  <path d="M120 85 H180 V105 C180 105 200 105 200 125 C200 145 185 150 175 150 C185 155 185 170 180 175 H120 C115 170 115 155 125 150 C115 150 100 145 100 125 C100 105 120 105 120 105 V85 Z" fill="url(#logoGradient)" />
  
  <!-- Base -->
  <rect x="135" y="175" width="30" height="10" fill="url(#logoGradient)" />
  <rect x="125" y="185" width="50" height="5" fill="url(#logoGradient)" />
  
  <!-- Text -->
  <text x="50" y="220" font-family="Arial" font-weight="bold" font-size="28" fill="url(#logoGradient)">CONTESTED</text>
  
  <!-- Sparkles -->
  <path d="M90 70 L95 80 L100 70 L95 60 Z" fill="#FFFFFF" />
  <path d="M210 70 L215 80 L220 70 L215 60 Z" fill="#FFFFFF" />
  <path d="M150 40 L155 50 L160 40 L155 30 Z" fill="#FFFFFF" />
</svg>