<?xml version="1.0" encoding="UTF-8" standalone="no"?>
<svg width="600" height="600" viewBox="0 0 600 600" fill="none" xmlns="http://www.w3.org/2000/svg">
  <g opacity="0.5">
    <circle cx="50" cy="50" r="3" fill="white"/>
    <circle cx="150" cy="50" r="3" fill="white"/>
    <circle cx="250" cy="50" r="3" fill="white"/>
    <circle cx="350" cy="50" r="3" fill="white"/>
    <circle cx="450" cy="50" r="3" fill="white"/>
    <circle cx="550" cy="50" r="3" fill="white"/>

    <circle cx="50" cy="150" r="3" fill="white"/>
    <circle cx="150" cy="150" r="3" fill="white"/>
    <circle cx="250" cy="150" r="3" fill="white"/>
    <circle cx="350" cy="150" r="3" fill="white"/>
    <circle cx="450" cy="150" r="3" fill="white"/>
    <circle cx="550" cy="150" r="3" fill="white"/>

    <circle cx="50" cy="250" r="3" fill="white"/>
    <circle cx="150" cy="250" r="3" fill="white"/>
    <circle cx="250" cy="250" r="3" fill="white"/>
    <circle cx="350" cy="250" r="3" fill="white"/>
    <circle cx="450" cy="250" r="3" fill="white"/>
    <circle cx="550" cy="250" r="3" fill="white"/>

    <circle cx="50" cy="350" r="3" fill="white"/>
    <circle cx="150" cy="350" r="3" fill="white"/>
    <circle cx="250" cy="350" r="3" fill="white"/>
    <circle cx="350" cy="350" r="3" fill="white"/>
    <circle cx="450" cy="350" r="3" fill="white"/>
    <circle cx="550" cy="350" r="3" fill="white"/>

    <circle cx="50" cy="450" r="3" fill="white"/>
    <circle cx="150" cy="450" r="3" fill="white"/>
    <circle cx="250" cy="450" r="3" fill="white"/>
    <circle cx="350" cy="450" r="3" fill="white"/>
    <circle cx="450" cy="450" r="3" fill="white"/>
    <circle cx="550" cy="450" r="3" fill="white"/>

    <circle cx="50" cy="550" r="3" fill="white"/>
    <circle cx="150" cy="550" r="3" fill="white"/>
    <circle cx="250" cy="550" r="3" fill="white"/>
    <circle cx="350" cy="550" r="3" fill="white"/>
    <circle cx="450" cy="550" r="3" fill="white"/>
    <circle cx="550" cy="550" r="3" fill="white"/>
  </g>
</svg>