<?xml version="1.0" encoding="UTF-8" standalone="no"?>
<svg width="600" height="600" viewBox="0 0 600 600" fill="none" xmlns="http://www.w3.org/2000/svg">
  <g opacity="0.5">
    <circle cx="20" cy="20" r="2" fill="white"/>
    <circle cx="60" cy="20" r="2" fill="white"/>
    <circle cx="100" cy="20" r="2" fill="white"/>
    <circle cx="140" cy="20" r="2" fill="white"/>
    <circle cx="180" cy="20" r="2" fill="white"/>
    <circle cx="220" cy="20" r="2" fill="white"/>
    <circle cx="260" cy="20" r="2" fill="white"/>
    <circle cx="300" cy="20" r="2" fill="white"/>
    <circle cx="340" cy="20" r="2" fill="white"/>
    <circle cx="380" cy="20" r="2" fill="white"/>
    <circle cx="420" cy="20" r="2" fill="white"/>
    <circle cx="460" cy="20" r="2" fill="white"/>
    <circle cx="500" cy="20" r="2" fill="white"/>
    <circle cx="540" cy="20" r="2" fill="white"/>
    <circle cx="580" cy="20" r="2" fill="white"/>

    <circle cx="20" cy="60" r="2" fill="white"/>
    <circle cx="60" cy="60" r="2" fill="white"/>
    <circle cx="100" cy="60" r="2" fill="white"/>
    <circle cx="140" cy="60" r="2" fill="white"/>
    <circle cx="180" cy="60" r="2" fill="white"/>
    <circle cx="220" cy="60" r="2" fill="white"/>
    <circle cx="260" cy="60" r="2" fill="white"/>
    <circle cx="300" cy="60" r="2" fill="white"/>
    <circle cx="340" cy="60" r="2" fill="white"/>
    <circle cx="380" cy="60" r="2" fill="white"/>
    <circle cx="420" cy="60" r="2" fill="white"/>
    <circle cx="460" cy="60" r="2" fill="white"/>
    <circle cx="500" cy="60" r="2" fill="white"/>
    <circle cx="540" cy="60" r="2" fill="white"/>
    <circle cx="580" cy="60" r="2" fill="white"/>

    <circle cx="20" cy="100" r="2" fill="white"/>
    <circle cx="60" cy="100" r="2" fill="white"/>
    <circle cx="100" cy="100" r="2" fill="white"/>
    <circle cx="140" cy="100" r="2" fill="white"/>
    <circle cx="180" cy="100" r="2" fill="white"/>
    <circle cx="220" cy="100" r="2" fill="white"/>
    <circle cx="260" cy="100" r="2" fill="white"/>
    <circle cx="300" cy="100" r="2" fill="white"/>
    <circle cx="340" cy="100" r="2" fill="white"/>
    <circle cx="380" cy="100" r="2" fill="white"/>
    <circle cx="420" cy="100" r="2" fill="white"/>
    <circle cx="460" cy="100" r="2" fill="white"/>
    <circle cx="500" cy="100" r="2" fill="white"/>
    <circle cx="540" cy="100" r="2" fill="white"/>
    <circle cx="580" cy="100" r="2" fill="white"/>

    <circle cx="20" cy="140" r="2" fill="white"/>
    <circle cx="60" cy="140" r="2" fill="white"/>
    <circle cx="100" cy="140" r="2" fill="white"/>
    <circle cx="140" cy="140" r="2" fill="white"/>
    <circle cx="180" cy="140" r="2" fill="white"/>
    <circle cx="220" cy="140" r="2" fill="white"/>
    <circle cx="260" cy="140" r="2" fill="white"/>
    <circle cx="300" cy="140" r="2" fill="white"/>
    <circle cx="340" cy="140" r="2" fill="white"/>
    <circle cx="380" cy="140" r="2" fill="white"/>
    <circle cx="420" cy="140" r="2" fill="white"/>
    <circle cx="460" cy="140" r="2" fill="white"/>
    <circle cx="500" cy="140" r="2" fill="white"/>
    <circle cx="540" cy="140" r="2" fill="white"/>
    <circle cx="580" cy="140" r="2" fill="white"/>

    <circle cx="20" cy="180" r="2" fill="white"/>
    <circle cx="60" cy="180" r="2" fill="white"/>
    <circle cx="100" cy="180" r="2" fill="white"/>
    <circle cx="140" cy="180" r="2" fill="white"/>
    <circle cx="180" cy="180" r="2" fill="white"/>
    <circle cx="220" cy="180" r="2" fill="white"/>
    <circle cx="260" cy="180" r="2" fill="white"/>
    <circle cx="300" cy="180" r="2" fill="white"/>
    <circle cx="340" cy="180" r="2" fill="white"/>
    <circle cx="380" cy="180" r="2" fill="white"/>
    <circle cx="420" cy="180" r="2" fill="white"/>
    <circle cx="460" cy="180" r="2" fill="white"/>
    <circle cx="500" cy="180" r="2" fill="white"/>
    <circle cx="540" cy="180" r="2" fill="white"/>
    <circle cx="580" cy="180" r="2" fill="white"/>

    <circle cx="20" cy="220" r="2" fill="white"/>
    <circle cx="60" cy="220" r="2" fill="white"/>
    <circle cx="100" cy="220" r="2" fill="white"/>
    <circle cx="140" cy="220" r="2" fill="white"/>
    <circle cx="180" cy="220" r="2" fill="white"/>
    <circle cx="220" cy="220" r="2" fill="white"/>
    <circle cx="260" cy="220" r="2" fill="white"/>
    <circle cx="300" cy="220" r="2" fill="white"/>
    <circle cx="340" cy="220" r="2" fill="white"/>
    <circle cx="380" cy="220" r="2" fill="white"/>
    <circle cx="420" cy="220" r="2" fill="white"/>
    <circle cx="460" cy="220" r="2" fill="white"/>
    <circle cx="500" cy="220" r="2" fill="white"/>
    <circle cx="540" cy="220" r="2" fill="white"/>
    <circle cx="580" cy="220" r="2" fill="white"/>

    <circle cx="20" cy="260" r="2" fill="white"/>
    <circle cx="60" cy="260" r="2" fill="white"/>
    <circle cx="100" cy="260" r="2" fill="white"/>
    <circle cx="140" cy="260" r="2" fill="white"/>
    <circle cx="180" cy="260" r="2" fill="white"/>
    <circle cx="220" cy="260" r="2" fill="white"/>
    <circle cx="260" cy="260" r="2" fill="white"/>
    <circle cx="300" cy="260" r="2" fill="white"/>
    <circle cx="340" cy="260" r="2" fill="white"/>
    <circle cx="380" cy="260" r="2" fill="white"/>
    <circle cx="420" cy="260" r="2" fill="white"/>
    <circle cx="460" cy="260" r="2" fill="white"/>
    <circle cx="500" cy="260" r="2" fill="white"/>
    <circle cx="540" cy="260" r="2" fill="white"/>
    <circle cx="580" cy="260" r="2" fill="white"/>

    <circle cx="20" cy="300" r="2" fill="white"/>
    <circle cx="60" cy="300" r="2" fill="white"/>
    <circle cx="100" cy="300" r="2" fill="white"/>
    <circle cx="140" cy="300" r="2" fill="white"/>
    <circle cx="180" cy="300" r="2" fill="white"/>
    <circle cx="220" cy="300" r="2" fill="white"/>
    <circle cx="260" cy="300" r="2" fill="white"/>
    <circle cx="300" cy="300" r="2" fill="white"/>
    <circle cx="340" cy="300" r="2" fill="white"/>
    <circle cx="380" cy="300" r="2" fill="white"/>
    <circle cx="420" cy="300" r="2" fill="white"/>
    <circle cx="460" cy="300" r="2" fill="white"/>
    <circle cx="500" cy="300" r="2" fill="white"/>
    <circle cx="540" cy="300" r="2" fill="white"/>
    <circle cx="580" cy="300" r="2" fill="white"/>

    <circle cx="20" cy="340" r="2" fill="white"/>
    <circle cx="60" cy="340" r="2" fill="white"/>
    <circle cx="100" cy="340" r="2" fill="white"/>
    <circle cx="140" cy="340" r="2" fill="white"/>
    <circle cx="180" cy="340" r="2" fill="white"/>
    <circle cx="220" cy="340" r="2" fill="white"/>
    <circle cx="260" cy="340" r="2" fill="white"/>
    <circle cx="300" cy="340" r="2" fill="white"/>
    <circle cx="340" cy="340" r="2" fill="white"/>
    <circle cx="380" cy="340" r="2" fill="white"/>
    <circle cx="420" cy="340" r="2" fill="white"/>
    <circle cx="460" cy="340" r="2" fill="white"/>
    <circle cx="500" cy="340" r="2" fill="white"/>
    <circle cx="540" cy="340" r="2" fill="white"/>
    <circle cx="580" cy="340" r="2" fill="white"/>

    <circle cx="20" cy="380" r="2" fill="white"/>
    <circle cx="60" cy="380" r="2" fill="white"/>
    <circle cx="100" cy="380" r="2" fill="white"/>
    <circle cx="140" cy="380" r="2" fill="white"/>
    <circle cx="180" cy="380" r="2" fill="white"/>
    <circle cx="220" cy="380" r="2" fill="white"/>
    <circle cx="260" cy="380" r="2" fill="white"/>
    <circle cx="300" cy="380" r="2" fill="white"/>
    <circle cx="340" cy="380" r="2" fill="white"/>
    <circle cx="380" cy="380" r="2" fill="white"/>
    <circle cx="420" cy="380" r="2" fill="white"/>
    <circle cx="460" cy="380" r="2" fill="white"/>
    <circle cx="500" cy="380" r="2" fill="white"/>
    <circle cx="540" cy="380" r="2" fill="white"/>
    <circle cx="580" cy="380" r="2" fill="white"/>

    <circle cx="20" cy="420" r="2" fill="white"/>
    <circle cx="60" cy="420" r="2" fill="white"/>
    <circle cx="100" cy="420" r="2" fill="white"/>
    <circle cx="140" cy="420" r="2" fill="white"/>
    <circle cx="180" cy="420" r="2" fill="white"/>
    <circle cx="220" cy="420" r="2" fill="white"/>
    <circle cx="260" cy="420" r="2" fill="white"/>
    <circle cx="300" cy="420" r="2" fill="white"/>
    <circle cx="340" cy="420" r="2" fill="white"/>
    <circle cx="380" cy="420" r="2" fill="white"/>
    <circle cx="420" cy="420" r="2" fill="white"/>
    <circle cx="460" cy="420" r="2" fill="white"/>
    <circle cx="500" cy="420" r="2" fill="white"/>
    <circle cx="540" cy="420" r="2" fill="white"/>
    <circle cx="580" cy="420" r="2" fill="white"/>

    <circle cx="20" cy="460" r="2" fill="white"/>
    <circle cx="60" cy="460" r="2" fill="white"/>
    <circle cx="100" cy="460" r="2" fill="white"/>
    <circle cx="140" cy="460" r="2" fill="white"/>
    <circle cx="180" cy="460" r="2" fill="white"/>
    <circle cx="220" cy="460" r="2" fill="white"/>
    <circle cx="260" cy="460" r="2" fill="white"/>
    <circle cx="300" cy="460" r="2" fill="white"/>
    <circle cx="340" cy="460" r="2" fill="white"/>
    <circle cx="380" cy="460" r="2" fill="white"/>
    <circle cx="420" cy="460" r="2" fill="white"/>
    <circle cx="460" cy="460" r="2" fill="white"/>
    <circle cx="500" cy="460" r="2" fill="white"/>
    <circle cx="540" cy="460" r="2" fill="white"/>
    <circle cx="580" cy="460" r="2" fill="white"/>

    <circle cx="20" cy="500" r="2" fill="white"/>
    <circle cx="60" cy="500" r="2" fill="white"/>
    <circle cx="100" cy="500" r="2" fill="white"/>
    <circle cx="140" cy="500" r="2" fill="white"/>
    <circle cx="180" cy="500" r="2" fill="white"/>
    <circle cx="220" cy="500" r="2" fill="white"/>
    <circle cx="260" cy="500" r="2" fill="white"/>
    <circle cx="300" cy="500" r="2" fill="white"/>
    <circle cx="340" cy="500" r="2" fill="white"/>
    <circle cx="380" cy="500" r="2" fill="white"/>
    <circle cx="420" cy="500" r="2" fill="white"/>
    <circle cx="460" cy="500" r="2" fill="white"/>
    <circle cx="500" cy="500" r="2" fill="white"/>
    <circle cx="540" cy="500" r="2" fill="white"/>
    <circle cx="580" cy="500" r="2" fill="white"/>

    <circle cx="20" cy="540" r="2" fill="white"/>
    <circle cx="60" cy="540" r="2" fill="white"/>
    <circle cx="100" cy="540" r="2" fill="white"/>
    <circle cx="140" cy="540" r="2" fill="white"/>
    <circle cx="180" cy="540" r="2" fill="white"/>
    <circle cx="220" cy="540" r="2" fill="white"/>
    <circle cx="260" cy="540" r="2" fill="white"/>
    <circle cx="300" cy="540" r="2" fill="white"/>
    <circle cx="340" cy="540" r="2" fill="white"/>
    <circle cx="380" cy="540" r="2" fill="white"/>
    <circle cx="420" cy="540" r="2" fill="white"/>
    <circle cx="460" cy="540" r="2" fill="white"/>
    <circle cx="500" cy="540" r="2" fill="white"/>
    <circle cx="540" cy="540" r="2" fill="white"/>
    <circle cx="580" cy="540" r="2" fill="white"/>

    <circle cx="20" cy="580" r="2" fill="white"/>
    <circle cx="60" cy="580" r="2" fill="white"/>
    <circle cx="100" cy="580" r="2" fill="white"/>
    <circle cx="140" cy="580" r="2" fill="white"/>
    <circle cx="180" cy="580" r="2" fill="white"/>
    <circle cx="220" cy="580" r="2" fill="white"/>
    <circle cx="260" cy="580" r="2" fill="white"/>
    <circle cx="300" cy="580" r="2" fill="white"/>
    <circle cx="340" cy="580" r="2" fill="white"/>
    <circle cx="380" cy="580" r="2" fill="white"/>
    <circle cx="420" cy="580" r="2" fill="white"/>
    <circle cx="460" cy="580" r="2" fill="white"/>
    <circle cx="500" cy="580" r="2" fill="white"/>
    <circle cx="540" cy="580" r="2" fill="white"/>
    <circle cx="580" cy="580" r="2" fill="white"/>
  </g>
</svg>